<?xml version="1.0" encoding="UTF-8"?>
<svg xmlns="http://www.w3.org/2000/svg" xmlns:xlink="http://www.w3.org/1999/xlink" width="32px" height="28px" viewBox="0 0 30 30" version="1.1">
<g id="surface1">
<path style=" stroke:none;fill-rule:nonzero;fill:rgb(100%,100%,100%);fill-opacity:1;" d="M 16.398438 30.132812 C 10.933594 30.132812 5.535156 30.132812 0.132812 30.132812 C 0.132812 20.132812 0.132812 10.132812 0.132812 0.132812 C 10.132812 0.132812 20.132812 0.132812 30.132812 0.132812 C 30.132812 10.132812 30.132812 20.132812 30.132812 30.132812 C 25.578125 30.132812 21.023438 30.132812 16.398438 30.132812 M 10.289062 6.136719 C 7.402344 6.25 6.046875 7.691406 6.136719 10.660156 C 6.140625 13.726562 6.148438 16.792969 6.136719 19.980469 C 6.246094 22.796875 7.566406 24.113281 10.394531 24.128906 C 13.550781 24.125 16.707031 24.117188 19.980469 24.128906 C 22.796875 24.019531 24.113281 22.703125 24.128906 19.871094 C 24.125 16.714844 24.117188 13.5625 24.128906 10.289062 C 24.015625 7.402344 22.574219 6.046875 19.605469 6.136719 C 16.539062 6.140625 13.472656 6.148438 10.289062 6.136719 Z M 10.289062 6.136719 "/>
<path style=" stroke:none;fill-rule:nonzero;fill:rgb(0.392157%,40%,78.431373%);fill-opacity:1;" d="M 10.269531 24.109375 C 7.566406 24.113281 6.246094 22.796875 6.179688 19.878906 C 6.238281 16.777344 6.25 13.773438 6.257812 10.773438 C 6.257812 10.695312 6.191406 10.617188 6.15625 10.539062 C 6.046875 7.691406 7.402344 6.25 10.386719 6.179688 C 13.492188 6.238281 16.492188 6.25 19.496094 6.257812 C 19.574219 6.257812 19.652344 6.191406 19.730469 6.15625 C 22.574219 6.046875 24.015625 7.402344 24.085938 10.386719 C 24.027344 10.574219 24.003906 10.664062 24.003906 10.75 C 24 13.664062 24 16.578125 24.003906 19.496094 C 24.003906 19.664062 24.074219 19.828125 24.109375 19.996094 C 24.113281 22.703125 22.796875 24.019531 19.878906 24.085938 C 19.691406 24.027344 19.605469 24.003906 19.519531 24.003906 C 16.601562 24 13.6875 24 10.769531 24.003906 C 10.605469 24.003906 10.4375 24.074219 10.269531 24.109375 M 9.996094 20.546875 C 10.695312 20.546875 11.394531 20.546875 12.09375 20.546875 C 12.09375 18.105469 12.09375 15.75 12.09375 13.402344 C 12.023438 13.371094 11.984375 13.34375 11.945312 13.34375 C 11.261719 13.339844 10.574219 13.339844 9.796875 13.40625 C 9.777344 13.492188 9.738281 13.578125 9.738281 13.660156 C 9.734375 15.8125 9.730469 17.960938 9.738281 20.113281 C 9.738281 20.253906 9.828125 20.390625 9.996094 20.546875 M 17.507812 15.324219 C 18.136719 15.535156 18.332031 16.03125 18.347656 16.625 C 18.367188 17.289062 18.355469 17.957031 18.355469 18.621094 C 18.355469 19.253906 18.355469 19.886719 18.355469 20.515625 C 19.125 20.515625 19.804688 20.515625 20.527344 20.515625 C 20.527344 18.84375 20.582031 17.199219 20.507812 15.5625 C 20.453125 14.289062 19.308594 13.285156 18.03125 13.203125 C 17.042969 13.136719 16.226562 13.511719 15.46875 14.242188 C 15.445312 13.902344 15.429688 13.648438 15.410156 13.382812 C 14.710938 13.382812 14.039062 13.382812 13.390625 13.382812 C 13.390625 15.800781 13.390625 18.164062 13.390625 20.523438 C 14.125 20.523438 14.808594 20.523438 15.566406 20.523438 C 15.566406 19.253906 15.554688 18.015625 15.570312 16.78125 C 15.585938 15.644531 16.269531 15.105469 17.507812 15.324219 M 12.007812 11.785156 C 12.566406 11.089844 12.207031 10.15625 11.601562 9.851562 C 10.957031 9.523438 10.179688 9.773438 9.851562 10.433594 C 9.585938 10.964844 9.730469 11.609375 10.199219 11.988281 C 10.714844 12.40625 11.289062 12.363281 12.007812 11.785156 Z M 12.007812 11.785156 "/>
<path style=" stroke:none;fill-rule:nonzero;fill:rgb(0%,34.509804%,76.862745%);fill-opacity:1;" d="M 24.121094 19.933594 C 24.074219 19.828125 24.003906 19.664062 24.003906 19.496094 C 24 16.578125 24 13.664062 24.003906 10.75 C 24.003906 10.664062 24.027344 10.574219 24.078125 10.449219 C 24.117188 13.5625 24.125 16.714844 24.121094 19.933594 Z M 24.121094 19.933594 "/>
<path style=" stroke:none;fill-rule:nonzero;fill:rgb(0%,34.509804%,76.862745%);fill-opacity:1;" d="M 10.332031 24.121094 C 10.4375 24.074219 10.605469 24.003906 10.769531 24.003906 C 13.6875 24 16.601562 24 19.519531 24.003906 C 19.605469 24.003906 19.691406 24.027344 19.820312 24.078125 C 16.707031 24.117188 13.550781 24.125 10.332031 24.121094 Z M 10.332031 24.121094 "/>
<path style=" stroke:none;fill-rule:nonzero;fill:rgb(0%,34.509804%,76.862745%);fill-opacity:1;" d="M 19.667969 6.144531 C 19.652344 6.191406 19.574219 6.257812 19.496094 6.257812 C 16.492188 6.25 13.492188 6.238281 10.449219 6.191406 C 13.472656 6.148438 16.539062 6.140625 19.667969 6.144531 Z M 19.667969 6.144531 "/>
<path style=" stroke:none;fill-rule:nonzero;fill:rgb(0%,34.509804%,76.862745%);fill-opacity:1;" d="M 6.144531 10.597656 C 6.191406 10.617188 6.257812 10.695312 6.257812 10.773438 C 6.25 13.773438 6.238281 16.777344 6.191406 19.820312 C 6.148438 16.792969 6.140625 13.726562 6.144531 10.597656 Z M 6.144531 10.597656 "/>
<path style=" stroke:none;fill-rule:nonzero;fill:rgb(98.431373%,98.823529%,99.607843%);fill-opacity:1;" d="M 17.457031 15.3125 C 16.269531 15.105469 15.585938 15.644531 15.570312 16.78125 C 15.554688 18.015625 15.566406 19.253906 15.566406 20.523438 C 14.808594 20.523438 14.125 20.523438 13.390625 20.523438 C 13.390625 18.164062 13.390625 15.800781 13.390625 13.382812 C 14.039062 13.382812 14.710938 13.382812 15.410156 13.382812 C 15.429688 13.648438 15.445312 13.902344 15.46875 14.242188 C 16.226562 13.511719 17.042969 13.136719 18.03125 13.203125 C 19.308594 13.285156 20.453125 14.289062 20.507812 15.5625 C 20.582031 17.199219 20.527344 18.84375 20.527344 20.515625 C 19.804688 20.515625 19.125 20.515625 18.355469 20.515625 C 18.355469 19.886719 18.355469 19.253906 18.355469 18.621094 C 18.355469 17.957031 18.367188 17.289062 18.347656 16.625 C 18.332031 16.03125 18.136719 15.535156 17.457031 15.3125 Z M 17.457031 15.3125 "/>
<path style=" stroke:none;fill-rule:nonzero;fill:rgb(99.215686%,99.607843%,100%);fill-opacity:1;" d="M 9.886719 13.339844 C 10.574219 13.339844 11.261719 13.339844 11.945312 13.34375 C 11.984375 13.34375 12.023438 13.371094 12.09375 13.402344 C 12.09375 15.75 12.09375 18.105469 12.09375 20.546875 C 11.394531 20.546875 10.695312 20.546875 9.933594 20.476562 C 9.875 18.050781 9.882812 15.695312 9.886719 13.339844 Z M 9.886719 13.339844 "/>
<path style=" stroke:none;fill-rule:nonzero;fill:rgb(98.431373%,98.823529%,99.607843%);fill-opacity:1;" d="M 11.976562 11.828125 C 11.289062 12.363281 10.714844 12.40625 10.199219 11.988281 C 9.730469 11.609375 9.585938 10.964844 9.851562 10.433594 C 10.179688 9.773438 10.957031 9.523438 11.601562 9.851562 C 12.207031 10.15625 12.566406 11.089844 11.976562 11.828125 Z M 11.976562 11.828125 "/>
<path style=" stroke:none;fill-rule:nonzero;fill:rgb(0%,34.509804%,76.862745%);fill-opacity:1;" d="M 9.84375 13.375 C 9.882812 15.695312 9.875 18.050781 9.871094 20.46875 C 9.828125 20.390625 9.738281 20.253906 9.738281 20.113281 C 9.730469 17.960938 9.734375 15.8125 9.738281 13.660156 C 9.738281 13.578125 9.777344 13.492188 9.84375 13.375 Z M 9.84375 13.375 "/>
</g>
</svg>
