<svg version="1.1" id="Layer_1" xmlns="http://www.w3.org/2000/svg" xmlns:xlink="http://www.w3.org/1999/xlink" x="0px" y="0px"
	 width="18px" viewBox="0 0 216 216" enable-background="new 0 0 216 216" xml:space="preserve">
<path fill="#020202" opacity="1.000000" stroke="none" 
	d="
M125.000000,226.000000 
	C116.979103,226.000000 108.958199,226.000000 100.327682,225.629120 
	C97.926888,224.902161 96.134377,224.552719 94.344734,224.189056 
	C48.258045,214.823807 18.578978,187.456940 4.945655,142.571976 
	C3.391125,137.454010 2.303903,132.194092 1.000000,127.000000 
	C1.000000,118.312439 1.000000,109.624870 1.370867,100.327759 
	C2.097861,97.927078 2.448012,96.134727 2.810989,94.344986 
	C12.204920,48.025993 39.769909,18.351164 84.919426,4.877717 
	C90.195496,3.303241 95.635818,2.279213 101.000000,1.000000 
	C109.020897,1.000000 117.041801,1.000000 125.666969,1.382545 
	C171.902939,6.870621 210.342758,40.042645 222.060730,84.450836 
	C223.424820,89.620430 224.689331,94.816307 226.000000,100.000000 
	C226.000000,108.687561 226.000000,117.375130 225.629303,126.672150 
	C224.902252,129.073273 224.550568,130.865906 224.188904,132.656494 
	C215.179901,177.259308 188.935349,206.670029 145.882278,221.025299 
	C139.120377,223.279938 131.970490,224.370941 125.000000,226.000000 
M70.145859,200.801163 
	C70.162399,201.108719 70.178940,201.416290 70.195480,201.723846 
	C70.383072,201.374649 70.570671,201.025452 70.046494,200.546631 
	C63.713821,190.295029 57.432995,180.010620 50.989182,169.829361 
	C50.085724,168.401886 48.451698,166.591660 47.038605,166.482971 
	C41.835953,166.082840 36.583965,166.324127 31.126642,166.324127 
	C36.930717,178.364975 57.667351,197.258942 69.360634,201.356125 
	C69.721046,201.482407 70.316887,200.936783 70.145859,200.801163 
M156.674255,201.532700 
	C173.283569,194.002090 185.949692,182.062332 196.500946,166.322617 
	C191.006134,166.322617 186.395889,166.578903 181.830170,166.238403 
	C178.414444,165.983658 177.223969,167.544464 175.580917,170.293915 
	C169.426239,180.593231 162.736481,190.572800 156.391693,201.263138 
	C156.670044,201.269073 156.948395,201.275009 157.226746,201.280930 
	C156.885498,201.087280 156.544250,200.893616 156.674255,201.532700 
M68.913116,25.839426 
	C53.128429,33.827084 40.493198,45.201473 30.523582,60.676563 
	C36.542286,60.676563 41.522358,60.815006 46.485401,60.585365 
	C47.832302,60.523041 49.698521,59.701340 50.358646,58.631207 
	C57.023220,47.827183 63.486523,36.899002 70.562828,25.933308 
	C70.589882,25.709324 70.616928,25.485340 70.643974,25.261358 
	C70.294769,25.400639 69.945557,25.539919 68.913116,25.839426 
M157.053314,25.230043 
	C156.789093,25.265772 156.524857,25.301500 156.260635,25.337227 
	C156.502701,25.562189 156.744766,25.787151 157.031570,26.701845 
	C163.347336,36.972435 169.631973,47.262463 176.019363,57.488308 
	C176.792130,58.725464 178.071259,60.459900 179.198181,60.524471 
	C184.705505,60.840057 190.240784,60.667404 196.548721,60.667404 
	C186.035248,45.103191 173.614914,33.264591 157.053314,25.230043 
M97.192719,152.604843 
	C107.349136,152.610703 117.506516,152.684433 127.660835,152.541351 
	C129.015305,152.522263 131.435837,151.545837 131.536575,150.774323 
	C132.839111,140.799301 133.810471,130.781021 134.877731,120.657547 
	C120.175774,120.657547 106.492249,120.657547 92.484177,120.657547 
	C92.857124,126.503304 92.970734,131.995224 93.622902,137.422440 
	C94.228096,142.458908 95.408295,147.426254 97.192719,152.604843 
M133.980499,102.406715 
	C132.957565,93.993027 132.054596,85.560875 130.765640,77.188141 
	C130.597260,76.094452 128.465286,74.531601 127.209785,74.500076 
	C118.051186,74.270081 108.883057,74.309387 99.721123,74.458832 
	C98.544037,74.478027 96.473480,75.483627 96.356323,76.263527 
	C94.861588,86.214371 93.648041,96.207443 92.295998,106.710541 
	C106.054604,106.710541 118.683952,106.635544 131.311142,106.767967 
	C134.151855,106.797760 134.174927,105.310791 133.980499,102.406715 
M147.531815,98.031128 
	C147.785019,100.794075 148.038223,103.557014 148.292267,106.329193 
	C156.744339,106.329193 164.913330,106.329193 174.311661,106.329193 
	C172.280731,96.213226 170.437744,86.682732 168.367432,77.201881 
	C168.130783,76.118195 166.647781,74.534119 165.698364,74.502258 
	C158.799240,74.270645 151.888733,74.377739 144.777588,74.377739 
	C145.693573,82.384109 146.537643,89.761856 147.531815,98.031128 
M55.024540,92.522079 
	C54.523300,97.083305 54.022060,101.644539 53.502129,106.375885 
	C62.323643,106.375885 70.528572,106.375885 78.529663,106.375885 
	C79.757790,95.585854 80.945229,85.153252 82.171860,74.376320 
	C79.848778,74.376320 78.038765,74.334694 76.231239,74.384064 
	C70.629677,74.537048 63.230518,72.625374 59.914425,75.466446 
	C56.321392,78.544792 56.534542,86.065704 55.024540,92.522079 
M147.245544,137.706528 
	C146.754517,142.565125 146.263504,147.423721 145.763550,152.370697 
	C153.453156,152.370697 160.546860,152.370697 168.572464,152.370697 
	C170.397278,141.800949 172.205963,131.324646 174.055710,120.610596 
	C164.629807,120.610596 156.555939,120.610596 148.467972,120.610596 
	C148.069519,126.218117 147.693802,131.505753 147.245544,137.706528 
M68.568497,152.624542 
	C72.695847,152.624542 76.823196,152.624542 81.096909,152.624542 
	C80.157028,141.654510 79.257370,131.154068 78.349808,120.561310 
	C70.121071,120.561310 62.048355,120.561310 52.804314,120.561310 
	C54.812691,131.519592 56.734295,142.004410 58.680695,152.624527 
	C62.309978,152.624527 64.957420,152.624527 68.568497,152.624542 
M182.755630,76.188789 
	C184.543259,86.242149 186.330887,96.295509 188.110016,106.301102 
	C195.759033,106.301102 203.610077,106.301102 212.779770,106.301102 
	C210.151703,96.368423 207.764877,87.133110 205.211761,77.943993 
	C204.855011,76.659920 203.672119,74.591843 202.887543,74.599121 
	C196.074951,74.662376 189.265976,75.117012 182.755630,76.188789 
M39.920143,103.288582 
	C41.243900,93.827332 42.567661,84.366074 43.964703,74.381050 
	C37.900005,74.381050 31.483128,74.289680 25.074425,74.477356 
	C24.087742,74.506241 22.629814,75.615898 22.250853,76.568314 
	C18.459049,86.098061 15.897119,95.924202 15.496410,106.708679 
	C23.077881,106.708679 30.355211,106.783890 37.625877,106.598183 
	C38.395336,106.578529 39.125671,105.027115 39.920143,103.288582 
M183.446854,148.014816 
	C183.205719,149.422760 182.964584,150.830704 182.657486,152.623795 
	C189.254486,152.623795 195.400909,152.683823 201.543716,152.561691 
	C202.510330,152.542465 204.017456,151.937027 204.334076,151.199066 
	C208.516327,141.451370 211.032272,131.306976 211.510452,120.682198 
	C203.159149,120.682198 195.277939,120.682198 187.935455,120.682198 
	C186.492004,129.835129 185.122726,138.517700 183.446854,148.014816 
M41.996155,141.315842 
	C41.094280,134.443329 40.192406,127.570831 39.282684,120.638535 
	C31.318748,120.638535 23.442287,120.638535 14.113997,120.638535 
	C16.872341,130.857269 19.393898,140.401535 22.089115,149.896484 
	C22.386147,150.942886 23.652786,152.454681 24.511736,152.483139 
	C31.059160,152.700150 37.617031,152.602066 44.585598,152.602066 
	C43.622189,148.565842 42.859123,145.368988 41.996155,141.315842 
M105.068710,186.414352 
	C107.730751,192.488052 110.392792,198.561752 113.054840,204.635452 
	C113.549110,204.644699 114.043388,204.653946 114.537666,204.663193 
	C119.288033,192.122192 124.038406,179.581192 128.972275,166.555740 
	C118.117424,166.555740 108.701012,166.555740 98.484261,166.555740 
	C100.718178,173.208023 102.807220,179.428864 105.068710,186.414352 
M119.214828,35.236862 
	C117.445259,30.798069 115.675682,26.359276 113.906113,21.920483 
	C113.489609,21.871733 113.073097,21.822985 112.656593,21.774235 
	C108.215286,34.473061 103.773972,47.171883 99.161774,60.359322 
	C109.114586,60.359322 117.940636,60.359322 127.466637,60.359322 
	C124.733398,51.892841 122.156441,43.910454 119.214828,35.236862 
M88.836800,48.376663 
	C92.124573,38.624706 95.412338,28.872751 99.148300,17.791424 
	C83.761887,29.899656 72.842285,43.758739 65.033798,60.386635 
	C72.289543,60.386635 78.892998,60.386635 85.436958,60.386635 
	C86.538368,56.453716 87.561554,52.800137 88.836800,48.376663 
M137.991653,47.601433 
	C139.167862,51.867157 140.344086,56.132885 141.540649,60.472408 
	C148.380478,60.472408 154.935410,60.472408 161.561325,60.472408 
	C156.509872,46.190731 137.104523,22.285683 128.246704,19.345451 
	C131.437210,28.514345 134.621429,37.665203 137.991653,47.601433 
M135.351013,189.762756 
	C132.750748,196.092468 130.150482,202.422195 127.064560,209.934113 
	C142.833405,197.873718 154.052811,183.703369 162.095825,166.592712 
	C155.184647,166.592712 148.917892,166.592712 142.831406,166.592712 
	C140.411240,174.286270 138.082611,181.688828 135.351013,189.762756 
M95.946205,200.513000 
	C91.859261,189.226639 87.772316,177.940277 83.693520,166.676422 
	C77.710022,166.676422 71.536072,166.676422 64.985878,166.676422 
	C73.180305,183.544342 84.127304,197.532715 99.347244,208.297012 
	C98.290405,205.945023 97.233559,203.593048 95.946205,200.513000 
z"/>
<path fill="#FDFDFD" opacity="1.000000" stroke="none" 
	d="
M125.468658,226.000000 
	C131.970490,224.370941 139.120377,223.279938 145.882278,221.025299 
	C188.935349,206.670029 215.179901,177.259308 224.188904,132.656494 
	C224.550568,130.865906 224.902252,129.073273 225.629303,127.140800 
	C226.000000,159.927658 226.000000,192.855331 226.000000,226.000000 
	C192.646088,226.000000 159.291702,226.000000 125.468658,226.000000 
z"/>
<path fill="#FDFDFD" opacity="1.000000" stroke="none" 
	d="
M226.000000,99.531342 
	C224.689331,94.816307 223.424820,89.620430 222.060730,84.450836 
	C210.342758,40.042645 171.902939,6.870621 126.135620,1.382545 
	C159.259903,1.000000 192.519791,1.000000 226.000000,1.000000 
	C226.000000,33.687233 226.000000,66.374954 226.000000,99.531342 
z"/>
<path fill="#FDFDFD" opacity="1.000000" stroke="none" 
	d="
M100.531342,1.000000 
	C95.635818,2.279213 90.195496,3.303241 84.919426,4.877717 
	C39.769909,18.351164 12.204920,48.025993 2.810989,94.344986 
	C2.448012,96.134727 2.097861,97.927078 1.370867,99.859100 
	C1.000000,67.072693 1.000000,34.145393 1.000000,1.000000 
	C34.020573,1.000000 67.041626,1.000000 100.531342,1.000000 
z"/>
<path fill="#FDFDFD" opacity="1.000000" stroke="none" 
	d="
M1.000000,127.468658 
	C2.303903,132.194092 3.391125,137.454010 4.945655,142.571976 
	C18.578978,187.456940 48.258045,214.823807 94.344734,224.189056 
	C96.134377,224.552719 97.926888,224.902161 99.859032,225.629120 
	C67.073067,226.000000 34.146137,226.000000 1.000000,226.000000 
	C1.000000,193.312759 1.000000,160.625046 1.000000,127.468658 
z"/>
<path fill="#F8F8F8" opacity="1.000000" stroke="none" 
	d="
M96.764015,152.514435 
	C95.408295,147.426254 94.228096,142.458908 93.622902,137.422440 
	C92.970734,131.995224 92.857124,126.503304 92.484177,120.657547 
	C106.492249,120.657547 120.175774,120.657547 134.877731,120.657547 
	C133.810471,130.781021 132.839111,140.799301 131.536575,150.774323 
	C131.435837,151.545837 129.015305,152.522263 127.660835,152.541351 
	C117.506516,152.684433 107.349136,152.610703 96.764015,152.514435 
z"/>
<path fill="#F7F7F7" opacity="1.000000" stroke="none" 
	d="
M133.992645,102.870140 
	C134.174927,105.310791 134.151855,106.797760 131.311142,106.767967 
	C118.683952,106.635544 106.054604,106.710541 92.295998,106.710541 
	C93.648041,96.207443 94.861588,86.214371 96.356323,76.263527 
	C96.473480,75.483627 98.544037,74.478027 99.721123,74.458832 
	C108.883057,74.309387 118.051186,74.270081 127.209785,74.500076 
	C128.465286,74.531601 130.597260,76.094452 130.765640,77.188141 
	C132.054596,85.560875 132.957565,93.993027 133.992645,102.870140 
z"/>
<path fill="#F7F7F7" opacity="1.000000" stroke="none" 
	d="
M147.456757,97.585373 
	C146.537643,89.761856 145.693573,82.384109 144.777588,74.377739 
	C151.888733,74.377739 158.799240,74.270645 165.698364,74.502258 
	C166.647781,74.534119 168.130783,76.118195 168.367432,77.201881 
	C170.437744,86.682732 172.280731,96.213226 174.311661,106.329193 
	C164.913330,106.329193 156.744339,106.329193 148.292267,106.329193 
	C148.038223,103.557014 147.785019,100.794075 147.456757,97.585373 
z"/>
<path fill="#F7F7F7" opacity="1.000000" stroke="none" 
	d="
M55.056160,92.085617 
	C56.534542,86.065704 56.321392,78.544792 59.914425,75.466446 
	C63.230518,72.625374 70.629677,74.537048 76.231239,74.384064 
	C78.038765,74.334694 79.848778,74.376320 82.171860,74.376320 
	C80.945229,85.153252 79.757790,95.585854 78.529663,106.375885 
	C70.528572,106.375885 62.323643,106.375885 53.502129,106.375885 
	C54.022060,101.644539 54.523300,97.083305 55.056160,92.085617 
z"/>
<path fill="#F7F7F7" opacity="1.000000" stroke="none" 
	d="
M147.281830,137.249969 
	C147.693802,131.505753 148.069519,126.218117 148.467972,120.610596 
	C156.555939,120.610596 164.629807,120.610596 174.055710,120.610596 
	C172.205963,131.324646 170.397278,141.800949 168.572464,152.370697 
	C160.546860,152.370697 153.453156,152.370697 145.763550,152.370697 
	C146.263504,147.423721 146.754517,142.565125 147.281830,137.249969 
z"/>
<path fill="#F7F7F7" opacity="1.000000" stroke="none" 
	d="
M68.086678,152.624542 
	C64.957420,152.624527 62.309978,152.624527 58.680695,152.624527 
	C56.734295,142.004410 54.812691,131.519592 52.804314,120.561310 
	C62.048355,120.561310 70.121071,120.561310 78.349808,120.561310 
	C79.257370,131.154068 80.157028,141.654510 81.096909,152.624542 
	C76.823196,152.624542 72.695847,152.624542 68.086678,152.624542 
z"/>
<path fill="#F6F6F6" opacity="1.000000" stroke="none" 
	d="
M182.605774,75.822006 
	C189.265976,75.117012 196.074951,74.662376 202.887543,74.599121 
	C203.672119,74.591843 204.855011,76.659920 205.211761,77.943993 
	C207.764877,87.133110 210.151703,96.368423 212.779770,106.301102 
	C203.610077,106.301102 195.759033,106.301102 188.110016,106.301102 
	C186.330887,96.295509 184.543259,86.242149 182.605774,75.822006 
z"/>
<path fill="#F6F6F6" opacity="1.000000" stroke="none" 
	d="
M39.897152,103.737457 
	C39.125671,105.027115 38.395336,106.578529 37.625877,106.598183 
	C30.355211,106.783890 23.077881,106.708679 15.496410,106.708679 
	C15.897119,95.924202 18.459049,86.098061 22.250853,76.568314 
	C22.629814,75.615898 24.087742,74.506241 25.074425,74.477356 
	C31.483128,74.289680 37.900005,74.381050 43.964703,74.381050 
	C42.567661,84.366074 41.243900,93.827332 39.897152,103.737457 
z"/>
<path fill="#F6F6F6" opacity="1.000000" stroke="none" 
	d="
M183.600159,147.607544 
	C185.122726,138.517700 186.492004,129.835129 187.935455,120.682198 
	C195.277939,120.682198 203.159149,120.682198 211.510452,120.682198 
	C211.032272,131.306976 208.516327,141.451370 204.334076,151.199066 
	C204.017456,151.937027 202.510330,152.542465 201.543716,152.561691 
	C195.400909,152.683823 189.254486,152.623795 182.657486,152.623795 
	C182.964584,150.830704 183.205719,149.422760 183.600159,147.607544 
z"/>
<path fill="#F6F6F6" opacity="1.000000" stroke="none" 
	d="
M42.046104,141.743988 
	C42.859123,145.368988 43.622189,148.565842 44.585598,152.602066 
	C37.617031,152.602066 31.059160,152.700150 24.511736,152.483139 
	C23.652786,152.454681 22.386147,150.942886 22.089115,149.896484 
	C19.393898,140.401535 16.872341,130.857269 14.113997,120.638535 
	C23.442287,120.638535 31.318748,120.638535 39.282684,120.638535 
	C40.192406,127.570831 41.094280,134.443329 42.046104,141.743988 
z"/>
<path fill="#F7F7F7" opacity="1.000000" stroke="none" 
	d="
M104.982483,186.032028 
	C102.807220,179.428864 100.718178,173.208023 98.484261,166.555740 
	C108.701012,166.555740 118.117424,166.555740 128.972275,166.555740 
	C124.038406,179.581192 119.288033,192.122192 114.537666,204.663193 
	C114.043388,204.653946 113.549110,204.644699 113.054840,204.635452 
	C110.392792,198.561752 107.730751,192.488052 104.982483,186.032028 
z"/>
<path fill="#F6F6F6" opacity="1.000000" stroke="none" 
	d="
M119.397156,35.582462 
	C122.156441,43.910454 124.733398,51.892841 127.466637,60.359322 
	C117.940636,60.359322 109.114586,60.359322 99.161774,60.359322 
	C103.773972,47.171883 108.215286,34.473061 112.656593,21.774235 
	C113.073097,21.822985 113.489609,21.871733 113.906113,21.920483 
	C115.675682,26.359276 117.445259,30.798069 119.397156,35.582462 
z"/>
<path fill="#F6F6F6" opacity="1.000000" stroke="none" 
	d="
M88.710770,48.761612 
	C87.561554,52.800137 86.538368,56.453716 85.436958,60.386635 
	C78.892998,60.386635 72.289543,60.386635 65.033798,60.386635 
	C72.842285,43.758739 83.761887,29.899656 99.148300,17.791424 
	C95.412338,28.872751 92.124573,38.624706 88.710770,48.761612 
z"/>
<path fill="#F6F6F6" opacity="1.000000" stroke="none" 
	d="
M137.898651,47.208748 
	C134.621429,37.665203 131.437210,28.514345 128.246704,19.345451 
	C137.104523,22.285683 156.509872,46.190731 161.561325,60.472408 
	C154.935410,60.472408 148.380478,60.472408 141.540649,60.472408 
	C140.344086,56.132885 139.167862,51.867157 137.898651,47.208748 
z"/>
<path fill="#F6F6F6" opacity="1.000000" stroke="none" 
	d="
M135.552490,189.427063 
	C138.082611,181.688828 140.411240,174.286270 142.831406,166.592712 
	C148.917892,166.592712 155.184647,166.592712 162.095825,166.592712 
	C154.052811,183.703369 142.833405,197.873718 127.064560,209.934113 
	C130.150482,202.422195 132.750748,196.092468 135.552490,189.427063 
z"/>
<path fill="#F6F6F6" opacity="1.000000" stroke="none" 
	d="
M96.061462,200.877045 
	C97.233559,203.593048 98.290405,205.945023 99.347244,208.297012 
	C84.127304,197.532715 73.180305,183.544342 64.985878,166.676422 
	C71.536072,166.676422 77.710022,166.676422 83.693520,166.676422 
	C87.772316,177.940277 91.859261,189.226639 96.061462,200.877045 
z"/>
<path fill="#F6F6F6" opacity="1.000000" stroke="none" 
	d="
M157.403671,25.663160 
	C173.614914,33.264591 186.035248,45.103191 196.548721,60.667404 
	C190.240784,60.667404 184.705505,60.840057 179.198181,60.524471 
	C178.071259,60.459900 176.792130,58.725464 176.019363,57.488308 
	C169.631973,47.262463 163.347336,36.972435 157.112610,26.268791 
	C157.193665,25.835739 157.403671,25.663160 157.403671,25.663160 
z"/>
<path fill="#F5F5F5" opacity="1.000000" stroke="none" 
	d="
M70.006355,26.005692 
	C63.486523,36.899002 57.023220,47.827183 50.358646,58.631207 
	C49.698521,59.701340 47.832302,60.523041 46.485401,60.585365 
	C41.522358,60.815006 36.542286,60.676563 30.523582,60.676563 
	C40.493198,45.201473 53.128429,33.827084 69.358276,25.839621 
	C69.803444,25.839815 70.006355,26.005690 70.006355,26.005692 
z"/>
<path fill="#F5F5F5" opacity="1.000000" stroke="none" 
	d="
M156.247330,200.672226 
	C162.736481,190.572800 169.426239,180.593231 175.580917,170.293915 
	C177.223969,167.544464 178.414444,165.983658 181.830170,166.238403 
	C186.395889,166.578903 191.006134,166.322617 196.500946,166.322617 
	C185.949692,182.062332 173.283569,194.002090 156.476791,201.131439 
	C156.279327,200.730164 156.247330,200.672226 156.247330,200.672226 
z"/>
<path fill="#F5F5F5" opacity="1.000000" stroke="none" 
	d="
M70.802971,200.704391 
	C70.316887,200.936783 69.721046,201.482407 69.360634,201.356125 
	C57.667351,197.258942 36.930717,178.364975 31.126642,166.324127 
	C36.583965,166.324127 41.835953,166.082840 47.038605,166.482971 
	C48.451698,166.591660 50.085724,168.401886 50.989182,169.829361 
	C57.432995,180.010620 63.713821,190.295029 70.386368,200.640640 
	C70.726242,200.734650 70.802971,200.704391 70.802971,200.704391 
z"/>
<path fill="#F5F5F5" opacity="1.000000" stroke="none" 
	d="
M69.699898,25.759506 
	C69.945557,25.539919 70.294769,25.400639 70.643974,25.261356 
	C70.616928,25.485340 70.589882,25.709324 70.284592,25.969498 
	C70.006355,26.005690 69.803444,25.839815 69.699898,25.759506 
z"/>
<path fill="#F6F6F6" opacity="1.000000" stroke="none" 
	d="
M157.090240,25.923927 
	C156.744766,25.787151 156.502701,25.562189 156.260635,25.337227 
	C156.524857,25.301500 156.789093,25.265772 157.228485,25.446602 
	C157.403671,25.663160 157.193665,25.835739 157.090240,25.923927 
z"/>
<path fill="#F5F5F5" opacity="1.000000" stroke="none" 
	d="
M70.742249,200.705444 
	C70.570671,201.025452 70.383072,201.374649 70.195480,201.723846 
	C70.178940,201.416290 70.162399,201.108719 70.474411,200.752777 
	C70.802971,200.704391 70.726242,200.734650 70.742249,200.705444 
z"/>
<path fill="#F5F5F5" opacity="1.000000" stroke="none" 
	d="
M156.241165,200.715057 
	C156.544250,200.893616 156.885498,201.087280 157.226746,201.280930 
	C156.948395,201.275009 156.670044,201.269073 156.319519,200.967682 
	C156.247330,200.672226 156.279327,200.730164 156.241165,200.715057 
z"/>
</svg>